<?xml version="1.0" standalone="no"?>
<!DOCTYPE svg PUBLIC "-//W3C//DTD SVG 20010904//EN"
 "http://www.w3.org/TR/2001/REC-SVG-20010904/DTD/svg10.dtd">
<svg version="1.0" xmlns="http://www.w3.org/2000/svg"
 width="1280.000000pt" height="1280.000000pt" viewBox="0 0 1280.000000 1280.000000"
 preserveAspectRatio="xMidYMid meet">
<g transform="translate(0.000000,1280.000000) scale(0.100000,-0.100000)"
fill="#000000" stroke="none">
<path d="M5672 11527 l-53 -53 -135 -455 c-74 -250 -151 -508 -171 -574 -20
-66 -38 -130 -40 -142 -7 -30 -17 -37 -98 -63 -157 -51 -320 -117 -501 -205
l-192 -93 -88 47 c-49 26 -147 79 -219 118 -71 39 -155 84 -186 101 -30 16
-163 88 -295 160 -131 71 -274 148 -316 171 -68 37 -80 40 -100 30 -13 -7
-265 -253 -560 -547 -369 -368 -538 -542 -538 -557 0 -11 6 -29 14 -40 7 -11
91 -164 186 -340 95 -176 229 -423 297 -548 67 -126 123 -234 123 -240 0 -7
-40 -91 -88 -187 -81 -161 -184 -407 -227 -540 -10 -30 -20 -58 -24 -62 -6 -7
-109 -38 -866 -263 -376 -112 -381 -114 -436 -189 l-29 -39 0 -697 c0 -547 3
-700 13 -708 6 -6 66 -26 132 -46 606 -178 1129 -336 1135 -343 4 -4 29 -75
55 -158 63 -202 121 -347 221 -554 46 -95 84 -181 84 -190 0 -17 -13 -40 -257
-491 -88 -162 -208 -384 -266 -492 -59 -108 -107 -202 -107 -210 0 -7 225
-238 500 -513 l500 -500 78 41 c42 23 187 101 322 174 135 73 272 147 305 165
33 18 139 75 235 128 96 52 191 103 211 112 l36 17 179 -89 c198 -100 391
-179 591 -243 114 -37 133 -46 142 -69 8 -21 145 -476 287 -956 13 -44 39
-132 57 -195 l34 -115 720 -3 720 -2 47 55 c54 63 41 24 197 550 194 656 207
697 221 710 7 7 58 27 113 45 157 51 355 134 540 228 l169 85 86 -45 c75 -40
493 -266 625 -338 28 -15 104 -57 170 -92 66 -36 159 -86 206 -111 47 -26 92
-47 100 -47 14 0 946 933 1057 1059 l54 60 -102 188 c-56 103 -128 235 -160
293 -32 58 -122 224 -201 370 -78 146 -151 279 -161 295 -10 17 -18 38 -18 47
0 9 31 79 69 155 93 185 148 317 211 503 29 85 54 157 56 159 2 2 70 24 151
48 686 205 964 287 998 296 27 6 59 28 98 65 l57 56 0 713 c0 391 -4 714 -8
717 -4 2 -291 89 -637 191 -347 103 -637 191 -645 195 -8 5 -30 55 -49 112
-59 183 -140 379 -239 577 l-96 193 21 37 c11 20 68 124 126 231 110 206 144
268 356 658 102 188 129 247 122 260 -18 33 -977 982 -992 982 -8 0 -23 -6
-34 -13 -11 -8 -60 -35 -110 -62 -49 -26 -166 -89 -260 -140 -93 -51 -255
-138 -360 -195 -104 -56 -242 -131 -307 -167 l-116 -63 -160 79 c-185 93 -359
165 -559 230 -79 26 -147 51 -152 56 -4 6 -47 141 -94 300 -164 552 -217 731
-254 853 l-37 122 -716 0 -716 0 -52 -53z m857 -3307 c724 -77 1353 -553 1621
-1229 45 -113 80 -237 107 -376 14 -71 18 -143 18 -340 0 -222 -3 -263 -23
-364 -97 -479 -370 -916 -717 -1147 -387 -258 -864 -375 -1305 -320 -455 57
-843 243 -1157 555 -299 297 -482 646 -560 1071 -27 148 -24 507 5 660 84 447
295 826 593 1066 284 228 651 381 1015 423 100 12 295 12 403 1z"/>
</g>
</svg>
